<svg xmlns="http://www.w3.org/2000/svg" viewBox="0 0 160 160">
  <defs>
    <linearGradient id="teal" x1="25" y1="35" x2="135" y2="125" gradientUnits="userSpaceOnUse">
      <stop offset="0" stop-color="#137d72"/>
      <stop offset="1" stop-color="#0b4f48"/>
    </linearGradient>
    <linearGradient id="gold" x1="80" y1="12" x2="80" y2="148" gradientUnits="userSpaceOnUse">
      <stop offset="0" stop-color="#f0d48a"/>
      <stop offset="1" stop-color="#a5762c"/>
    </linearGradient>
  </defs>
  <path d="M80 8 144 44v72l-64 36-64-36V44L80 8Z" fill="url(#teal)"/>
  <path d="M80 20 133 50v60l-53 30-53-30V50L80 20Z" fill="none" stroke="url(#gold)" stroke-width="7"/>
  <path d="M50 110 80 38l30 72H94l-6-16H72l-6 16H50Zm27-29h6l-3-9-3 9Z" fill="#fffaf5"/>
  <path d="M103 58h36v13h-11v46h-14V71h-11V58Z" fill="#fffaf5"/>
</svg>
