<svg xmlns="http://www.w3.org/2000/svg" viewBox="0 0 640 180" role="img" aria-labelledby="logoTitle logoDesc">
  <title id="logoTitle">Asian Treasures logo</title>
  <desc id="logoDesc">A jewel-inspired AT monogram with Asian Treasures wordmark.</desc>
  <defs>
    <linearGradient id="gem" x1="78" y1="18" x2="78" y2="142" gradientUnits="userSpaceOnUse">
      <stop offset="0" stop-color="#f0d48a"/>
      <stop offset="0.52" stop-color="#c09343"/>
      <stop offset="1" stop-color="#8d6122"/>
    </linearGradient>
    <linearGradient id="teal" x1="42" y1="48" x2="128" y2="132" gradientUnits="userSpaceOnUse">
      <stop offset="0" stop-color="#137d72"/>
      <stop offset="1" stop-color="#0b4f48"/>
    </linearGradient>
  </defs>
  <g transform="translate(14 10)">
    <path d="M80 2 145 39v74l-65 37-65-37V39L80 2Z" fill="url(#teal)"/>
    <path d="M80 13 135 45v62l-55 32-55-32V45L80 13Z" fill="none" stroke="url(#gem)" stroke-width="6"/>
    <path d="M51 105 80 34l29 71H94l-6-16H72l-6 16H51Zm26-29h7l-3-9-4 9Z" fill="#fffaf5"/>
    <path d="M103 57h38v13h-12v47h-14V70h-12V57Z" fill="#fffaf5"/>
    <circle cx="80" cy="145" r="7" fill="#c09343"/>
  </g>
  <g fill="#211a18">
    <text x="188" y="78" font-family="Playfair Display, Georgia, serif" font-size="48" font-weight="700">Asian Treasures</text>
    <text x="191" y="115" font-family="Inter, Arial, sans-serif" font-size="17" font-weight="700" letter-spacing="5">PAKISTANI FASHION</text>
    <path d="M191 133h260" stroke="#c09343" stroke-width="3" stroke-linecap="round"/>
  </g>
</svg>
